<svg xmlns="http://www.w3.org/2000/svg" width="102" height="49" fill="none"><path stroke="#000" stroke-linecap="round" stroke-width="3" d="M49.171 18.01c2.272-2.902 5.52-3.962 9.543-3.993 2.78-.022 5.52 1.733 7.734 3.037a149.674 149.674 0 0 0 8.427 4.608c5.078 2.567 10.795 3.84 16.574 3.446 2.713-.185 6.962-1.442 8.551-3.472M48.895 18.86l-4.747-2.796c-1.49-.877-3.073-.456-4.845-.323-2.008.15-3.76 1.013-5.27 2.124-2.192 1.613-4.654 2.977-7.18 4.205-2.626 1.276-5.838 2.507-8.776 3.097-1.804.362-3.937.906-5.797.727-1.226-.118-2.409-.566-3.649-.556-1.13.009-3.386-.206-4.32-.69-.602-.31-1.691-1.324-2.311-1.023M13.326 26.374c1.503 1.185 3.364 2.093 4.988 3.146 3.072 1.995 6.118 4.168 9.408 5.89 3.814 1.995 7.587 3.957 11.776 5.31 3.648 1.177 8.03 1.593 11.902 1.77 3.717.17 7.28-.046 10.794-1.18 2.839-.917 6.065-2.237 8.539-3.77 2.594-1.607 4.61-3.777 7.204-5.42 3.137-1.985 6.699-3.71 7.934-6.926"/><path stroke="#000" stroke-linecap="round" stroke-width="3" d="M15.14 26.57c3.003 0 6.015.058 9.018 0 2.642-.05 5.462-.023 8.11-.207 1.803-.125 3.824-.512 5.542-.973 1.608-.43 3.542-.196 5.214-.196 3.457 0 6.88.197 10.328.197 4.1 0 8.332-1.467 12.456-.689 2.087.394 4.326.492 6.461.492 3.561 0 7.25.197 10.882.197M26.022 27.357c0 1.175.453 2.367.453 3.54 0 .762-3.212.394-4.08.394M31.916 27.554c0 .757-.122 1.624.113 2.36.098.304.645 1.811.29 2.12-.63.546-2.744-.2-3.464-.34-.803-.154-1.4.032-2.153-.403"/><path stroke="#000" stroke-linecap="round" stroke-width="3" d="M32.823 32.077c1.164 0 2.245.002 3.388-.196 1.09-.19 2.073-.745 3.174-.984 2.791-.605.012-3.523.012-4.916M40.53 30.897c1.62 0 3.493.157 5.039-.24.95-.244 1.783-.532 2.67-.896.433-.178 1.4-.112 1.587-.437M50.244 26.49v2.444M50.035 30.245h5.525c.535 0 1.264.148 1.671-.226.195-.179.209-.43.209-.66 0-.535-.117-.978-.287-1.489-.189-.567-.547-1.092-.547-1.696M57.753 30.788c1.18 0 2.377.073 3.54-.115.681-.11 1.349-.099 1.828-.583.134-.137.128-.406.147-.578.078-.688.012-1.406.012-2.096v-2.101M63.384 30.29h3.41c.62 0 1.189.015 1.776-.18.425-.142.83-.309 1.228-.5.967-.467 1.066-1.356.875-2.25-.081-.38-.166-.758-.238-1.14-.034-.18-.038-.375-.115-.543M70.84 29.612h3.495c.44 0 .943.06 1.376-.022.166-.032.236-.033.24-.204.015-.677.086-1.421-.104-2.08a3.503 3.503 0 0 1-.157-.996M76.316 29.884c.68 0 1.22-.26 1.848-.45.664-.202 1.264-.286 1.962-.322.263-.013.556-.17.79-.178.324-.01.662-.046.98-.046M11.232 26.76c.153.05.135.313.173.428.161.481.47.939.808 1.34 1.12 1.33 2.438 2.634 3.775 3.8 1.765 1.541 3.524 3.154 5.408 4.585 2.011 1.526 4.363 2.86 6.634 4.068 3.549 1.889 7.148 3.862 11.127 4.991 2.525.717 5.156 1.021 7.81 1.021h6.847c2.068 0 4.12.075 6.158-.278 1.586-.275 3.167-.557 4.755-.836 1.192-.209 2.399-.482 3.524-.886 1.19-.428 2.313-.826 2.788-1.898M71.04 43.095c1.433 0 2.775-1.244 3.637-2.134 1.09-1.127 2.205-2.25 3.21-3.435.814-.96 1.488-1.816 2.543-2.598.798-.592 1.538-1.266 2.425-1.759.72-.4 1.122-.855 1.617-1.449.345-.412.627-.849 1.005-1.242.255-.266.61-.543.802-.846.38-.6.617-1.24.969-1.851.278-.482.347-1.032.695-1.485"/></svg>